<svg preserveAspectRatio="none" width="100%" height="100%" overflow="visible" style="display: block;" viewBox="0 0 81 82" fill="none" xmlns="http://www.w3.org/2000/svg">
<g id="Book">
<rect width="81" height="82" rx="40.5" fill="var(--fill-0, #EDF8F9)"/>
<path id="Vector" fill-rule="evenodd" clip-rule="evenodd" d="M20 17.3438C20 15.9265 20.563 14.5673 21.5651 13.5651C22.5673 12.563 23.9265 12 25.3438 12H57.4062C58.8235 12 60.1827 12.563 61.1849 13.5651C62.187 14.5673 62.75 15.9265 62.75 17.3438V52.9688C62.75 54.9139 61.7098 56.6025 60.1565 57.5644L59.6542 59.0713C59.0457 60.8982 59.0457 62.8731 59.6542 64.7001L59.9036 65.4446H60.9723C61.4447 65.4446 61.8978 65.6323 62.2318 65.9663C62.5659 66.3004 62.7536 66.7535 62.7536 67.2259C62.7536 67.6983 62.5659 68.1514 62.2318 68.4854C61.8978 68.8195 61.4447 69.0071 60.9723 69.0071H27.125C23.2062 69.0071 20 65.8187 20 61.8821V17.3509V17.3438ZM57.4062 15.5625H25.3438C24.8713 15.5625 24.4183 15.7502 24.0842 16.0842C23.7502 16.4183 23.5625 16.8713 23.5625 17.3438V55.8188C24.6099 55.2131 25.8283 54.864 27.125 54.864H57.4062C57.8787 54.864 58.3317 54.6763 58.6658 54.3423C58.9998 54.0082 59.1875 53.5552 59.1875 53.0827V17.4577C59.1875 16.9853 58.9998 16.5323 58.6658 16.1982C58.3317 15.8642 57.8787 15.6765 57.4062 15.6765V15.5625ZM56.1522 58.3125H27.1179C26.173 58.3125 25.2669 58.6878 24.5988 59.3559C23.9307 60.024 23.5554 60.9302 23.5554 61.875C23.5554 62.8198 23.9307 63.726 24.5988 64.3941C25.2669 65.0622 26.173 65.4375 27.1179 65.4375H56.1522C55.4592 63.1131 55.4592 60.6369 56.1522 58.3125Z" fill="var(--fill-0, #0891B2)"/>
</g>
</svg>
