<svg preserveAspectRatio="none" width="100%" height="100%" overflow="visible" style="display: block;" viewBox="0 0 48.4501 43.5485" fill="none" xmlns="http://www.w3.org/2000/svg">
<g id="Group">
<path id="Vector" d="M46.6831 37.9478C46.4377 38.6558 45.9233 39.2387 45.2513 39.5702C44.5792 39.9017 43.8037 39.9553 43.0925 39.7192C42.3813 39.4831 41.7917 38.9765 41.4513 38.3089C41.1109 37.6413 41.0471 36.8665 41.2738 36.1523C42.2613 33.1418 42.7597 29.9925 42.7501 26.8242C42.7501 14.1246 34.8955 5.7 24.2251 5.7C13.5547 5.7 5.70011 14.1246 5.70011 26.8242C5.70011 30.0732 6.20741 33.2282 7.17641 36.1523C7.40308 36.8665 7.33932 37.6413 6.99894 38.3089C6.65856 38.9765 6.06895 39.4831 5.35774 39.7192C4.64654 39.9553 3.87099 39.9017 3.19896 39.5702C2.52694 39.2387 2.01254 38.6558 1.76711 37.9478C0.587244 34.3582 -0.00933084 30.6027 0.000110324 26.8242C0.000110324 11.0637 10.3143 0 24.2251 0C38.136 0 48.4501 11.0637 48.4501 26.8242C48.4501 30.6831 47.8459 34.4423 46.6831 37.9478Z" fill="var(--fill-0, #9333EA)"/>
<path id="Vector_2" d="M12.7596 43.548C10.5009 43.5045 8.35116 42.5689 6.7801 40.9455C5.20904 39.3221 4.34432 37.1429 4.37486 34.884V34.8213C4.39081 33.703 4.62746 32.5989 5.07124 31.5723C5.51503 30.5458 6.15719 29.6169 6.96088 28.8392C7.76457 28.0615 8.71396 27.4501 9.75454 27.0403C10.7951 26.6304 11.9064 26.4301 13.0246 26.4509C13.777 26.4658 14.4929 26.7778 15.0162 27.3187C15.5395 27.8595 15.8275 28.5854 15.8176 29.3379L15.6637 40.7379C15.6585 41.1134 15.5792 41.4842 15.4302 41.8289C15.2813 42.1736 15.0657 42.4855 14.7958 42.7467C14.5259 43.0078 14.2071 43.213 13.8577 43.3505C13.5082 43.4881 13.135 43.5552 12.7596 43.548ZM35.8788 26.3511C38.1375 26.3946 40.2872 27.3302 41.8582 28.9536C43.4293 30.577 44.294 32.7562 44.2635 35.0151V35.0778C44.2319 37.3284 43.3083 39.4744 41.6956 41.0444C40.0828 42.6144 37.9127 43.48 35.6622 43.4511H35.6166C34.8632 43.4369 34.1461 43.1248 33.6221 42.5833C33.0982 42.0417 32.81 41.3147 32.8207 40.5612L32.9746 29.1612C32.9798 28.7857 33.0591 28.4149 33.2081 28.0702C33.357 27.7255 33.5726 27.4136 33.8425 27.1524C34.1124 26.8913 34.4312 26.6861 34.7807 26.5486C35.1301 26.411 35.5033 26.3439 35.8788 26.3511Z" fill="var(--fill-0, #9333EA)"/>
</g>
</svg>
