<svg preserveAspectRatio="none" width="100%" height="100%" overflow="visible" style="display: block;" viewBox="0 0 1275 158" fill="none" xmlns="http://www.w3.org/2000/svg">
<g id="Writing Practice" filter="url(#filter0_d_0_25)">
<path d="M4 16C4 7.16345 11.1634 0 20 0H1255C1263.84 0 1271 7.16344 1271 16V134C1271 142.837 1263.84 150 1255 150H20C11.1634 150 4 142.837 4 134V16Z" fill="var(--fill-0, white)"/>
<path d="M20 1H1255C1263.28 1.00002 1270 7.71574 1270 16V134C1270 142.284 1263.28 149 1255 149H20C11.7157 149 5 142.284 5 134V16C5 7.71573 11.7157 1 20 1Z" stroke="var(--stroke-0, #FDFDFD)" stroke-width="2"/>
</g>
<defs>
<filter id="filter0_d_0_25" x="0" y="0" width="1275" height="158" filterUnits="userSpaceOnUse" color-interpolation-filters="sRGB">
<feFlood flood-opacity="0" result="BackgroundImageFix"/>
<feColorMatrix in="SourceAlpha" type="matrix" values="0 0 0 0 0 0 0 0 0 0 0 0 0 0 0 0 0 0 127 0" result="hardAlpha"/>
<feOffset dy="4"/>
<feGaussianBlur stdDeviation="2"/>
<feComposite in2="hardAlpha" operator="out"/>
<feColorMatrix type="matrix" values="0 0 0 0 0 0 0 0 0 0 0 0 0 0 0 0 0 0 0.25 0"/>
<feBlend mode="normal" in2="BackgroundImageFix" result="effect1_dropShadow_0_25"/>
<feBlend mode="normal" in="SourceGraphic" in2="effect1_dropShadow_0_25" result="shape"/>
</filter>
</defs>
</svg>
